<?xml version="1.0" standalone="no"?>
<!DOCTYPE svg PUBLIC "-//W3C//DTD SVG 20010904//EN"
 "http://www.w3.org/TR/2001/REC-SVG-20010904/DTD/svg10.dtd">
<svg version="1.0" xmlns="http://www.w3.org/2000/svg"
 width="190.000000pt" height="190.000000pt" viewBox="0 0 190.000000 190.000000"
 preserveAspectRatio="xMidYMid meet">
<metadata>
Created by potrace 1.14, written by Peter Selinger 2001-2017
</metadata>
<g transform="translate(0.000000,190.000000) scale(0.100000,-0.100000)"
fill="#000000" stroke="none">
<path d="M628 1352 c-44 -4 -88 -41 -88 -75 0 -35 30 -56 94 -67 67 -11 84
-19 65 -31 -23 -14 -86 -10 -103 6 -14 14 -18 14 -41 -1 -21 -14 -23 -19 -13
-32 53 -64 201 -49 220 23 13 49 -30 80 -117 84 -11 1 -27 6 -35 11 -13 9 -13
11 0 20 22 14 63 12 85 -4 14 -10 25 -11 42 -3 28 13 29 21 2 46 -23 21 -55
28 -111 23z"/>
<path d="M1547 1353 c-3 -4 -29 -53 -57 -108 -29 -55 -57 -104 -61 -110 -15
-16 -10 -22 19 -19 15 1 33 2 40 3 6 1 12 8 12 16 0 16 4 17 59 17 22 0 39 -6
48 -17 7 -10 28 -19 47 -21 l35 -2 -29 52 c-16 28 -46 84 -68 124 -22 41 -42
70 -45 65z m22 -148 c1 -6 -8 -11 -19 -12 -23 -2 -23 -3 -9 34 10 26 12 27 19
8 5 -11 9 -25 9 -30z"/>
<path d="M6 1238 c1 -62 2 -116 3 -119 2 -12 191 -2 207 12 26 22 33 51 19 85
-7 17 -9 37 -5 44 10 17 -5 59 -28 76 -11 9 -49 13 -107 14 l-91 0 2 -112z
m157 53 c4 0 7 -8 7 -16 0 -11 -12 -15 -50 -15 -42 0 -50 3 -50 19 0 16 7 18
43 16 23 -1 45 -3 50 -4z m15 -103 c3 -15 -5 -18 -52 -18 -50 0 -56 2 -56 21
0 18 5 20 52 17 41 -2 54 -7 56 -20z"/>
<path d="M282 1233 l3 -118 110 0 110 0 2 27 2 27 -82 3 c-65 2 -82 6 -82 18
0 11 12 15 50 15 54 0 65 7 58 36 -4 15 -15 19 -54 19 -44 0 -70 13 -55 28 4
3 39 7 79 8 89 2 82 -1 85 29 l2 25 -115 0 -116 0 3 -117z"/>
<path d="M790 1320 c0 -26 3 -30 28 -29 61 4 61 4 60 -63 0 -117 -1 -114 32
-113 l30 0 0 87 c0 84 1 88 23 89 60 3 62 4 65 32 l3 27 -120 0 -121 0 0 -30z"/>
<path d="M1113 1338 c32 -84 92 -218 97 -218 4 0 12 10 18 23 6 12 23 41 36
65 l24 43 37 -65 c20 -36 40 -66 43 -66 4 0 21 35 39 78 17 42 39 94 47 115
l16 37 -34 0 c-34 0 -36 -2 -52 -55 -10 -30 -21 -55 -24 -55 -4 0 -20 25 -35
55 -16 30 -32 55 -36 55 -4 0 -19 -25 -35 -55 -16 -30 -32 -55 -35 -55 -3 0
-14 25 -24 55 -18 52 -21 55 -53 55 -23 0 -33 -4 -29 -12z"/>
<path d="M1630 1343 c1 -5 23 -37 51 -73 44 -58 50 -70 47 -107 -3 -43 -2 -45
27 -45 32 0 35 3 35 48 0 38 7 54 43 102 64 84 64 82 20 82 -33 -1 -42 -6 -66
-41 l-28 -41 -31 41 c-25 34 -35 41 -64 41 -19 0 -34 -3 -34 -7z"/>
<path d="M393 895 c-19 -13 -27 -39 -39 -115 -2 -14 -6 -41 -9 -60 -3 -19 -8
-58 -11 -85 -9 -78 -4 -80 200 -81 190 -1 221 7 230 53 11 55 26 149 31 197 4
28 8 53 10 56 2 4 -3 16 -11 28 -15 21 -22 22 -197 22 -145 0 -187 -3 -204
-15z m371 -26 c5 -4 -2 -54 -31 -224 -9 -54 -12 -55 -193 -55 -91 0 -169 2
-172 5 -4 4 24 200 37 252 3 13 14 23 28 25 39 5 325 3 331 -3z"/>
<path d="M492 839 c-24 -9 -39 -59 -20 -70 21 -14 28 -11 38 15 8 22 14 24 67
22 41 -1 58 -5 58 -15 0 -7 -45 -39 -99 -71 -59 -34 -103 -66 -107 -78 -10
-26 -18 -24 121 -24 89 1 106 3 117 19 8 10 12 24 11 33 -4 20 -38 26 -38 6 0
-13 -13 -16 -67 -16 l-68 0 75 41 c41 22 83 48 93 56 17 16 25 82 10 84 -31 6
-175 4 -191 -2z"/>
<path d="M915 829 c-9 -26 -8 -27 45 -30 61 -4 69 -7 63 -30 -5 -16 -14 -19
-63 -19 -51 0 -58 -2 -64 -22 -10 -39 -7 -48 19 -48 14 0 25 5 25 10 0 6 22
10 48 10 59 0 78 17 88 79 9 58 -8 71 -92 71 -55 0 -63 -3 -69 -21z"/>
<path d="M1109 838 c0 -7 -2 -20 -4 -28 -3 -18 -12 -69 -20 -126 -9 -56 7 -67
100 -68 65 -1 76 1 81 17 8 26 3 29 -68 31 -35 1 -62 6 -62 11 1 6 5 33 8 60
4 28 9 65 12 83 6 29 4 32 -20 32 -14 0 -26 -6 -27 -12z"/>
<path d="M1297 833 c-15 -18 -67 -128 -67 -144 0 -5 24 -9 54 -9 51 0 53 -1
62 -32 10 -33 41 -47 51 -22 7 20 -28 208 -41 216 -19 13 -42 9 -59 -9z m33
-83 c0 -11 -7 -20 -15 -20 -13 0 -14 4 -5 20 6 11 13 20 15 20 3 0 5 -9 5 -20z"/>
<path d="M1400 840 c0 -5 10 -33 22 -62 13 -32 22 -75 23 -108 0 -42 4 -55 15
-56 25 -1 40 17 40 48 0 19 18 55 50 102 28 40 50 75 50 79 0 4 -10 7 -23 7
-15 0 -33 -13 -53 -40 -16 -22 -32 -40 -35 -40 -4 0 -14 18 -23 40 -13 32 -21
40 -41 40 -14 0 -25 -4 -25 -10z"/>
<path d="M810 736 c-10 -25 11 -46 40 -39 19 5 32 35 21 49 -13 18 -52 12 -61
-10z"/>
<path d="M884 645 c-8 -19 3 -34 22 -31 15 2 34 23 34 39 0 13 -51 7 -56 -8z"/>
</g>
</svg>
