<?xml version="1.0" standalone="no"?>
<!DOCTYPE svg PUBLIC "-//W3C//DTD SVG 20010904//EN"
 "http://www.w3.org/TR/2001/REC-SVG-20010904/DTD/svg10.dtd">
<svg version="1.0" xmlns="http://www.w3.org/2000/svg"
 width="190.000000pt" height="190.000000pt" viewBox="0 0 190.000000 190.000000"
 preserveAspectRatio="xMidYMid meet">
<metadata>
Created by potrace 1.14, written by Peter Selinger 2001-2017
</metadata>
<g transform="translate(0.000000,190.000000) scale(0.100000,-0.100000)"
fill="#000000" stroke="none">
<path d="M138 1253 l-3 -42 -45 39 c-64 57 -70 54 -70 -35 0 -71 1 -75 23 -75
20 0 22 4 19 41 -5 47 -3 47 65 -8 23 -18 44 -33 47 -33 3 0 6 35 6 78 0 70
-2 78 -20 78 -15 0 -20 -8 -22 -43z"/>
<path d="M254 1291 c-2 -2 -4 -37 -4 -78 l0 -73 76 0 c66 0 75 2 72 18 -2 13
-14 17 -46 18 -58 2 -62 3 -62 13 0 6 17 11 38 13 44 4 53 32 10 33 -15 0 -33
6 -40 13 -10 10 -3 12 32 11 67 -2 72 -1 68 18 -3 15 -15 18 -71 18 -38 0 -70
-1 -73 -4z"/>
<path d="M456 1293 c-4 -4 50 -141 59 -151 2 -2 14 15 27 37 13 22 26 41 29
41 3 0 16 -19 29 -41 l23 -42 22 54 c41 100 41 102 20 105 -11 2 -23 -12 -34
-38 l-17 -40 -19 36 c-11 20 -23 36 -27 36 -4 0 -16 -17 -26 -37 l-19 -37 -13
36 c-12 33 -40 54 -54 41z"/>
<path d="M889 1285 c-35 -19 -51 -57 -38 -93 26 -76 159 -63 159 15 0 20 -5
23 -40 23 -33 0 -40 -3 -40 -20 0 -13 5 -18 15 -14 8 4 15 1 15 -5 0 -12 -29
-15 -54 -5 -20 8 -21 48 -1 64 11 9 22 9 44 2 23 -8 32 -7 41 3 9 11 6 16 -10
25 -34 18 -63 20 -91 5z"/>
<path d="M1129 1278 c-6 -12 -25 -46 -40 -75 -16 -29 -29 -54 -29 -57 0 -12
38 -5 49 8 13 15 63 12 69 -5 2 -5 15 -9 28 -9 l25 0 -25 43 c-13 23 -33 59
-44 80 -20 39 -20 39 -33 15z m23 -73 c0 -5 -5 -11 -11 -13 -6 -2 -11 4 -11
13 0 9 5 15 11 13 6 -2 11 -8 11 -13z"/>
<path d="M1281 1230 c-14 -90 -14 -90 9 -90 13 0 20 7 20 19 0 11 3 27 6 35 5
14 10 12 30 -11 l23 -27 24 22 c31 29 37 28 37 -8 0 -24 4 -30 21 -30 19 0 20
4 15 53 -4 28 -8 61 -11 72 -2 11 -4 24 -4 29 -1 5 -18 -12 -38 -38 l-38 -47
-41 45 -41 44 -12 -68z"/>
<path d="M1534 1291 c-2 -2 -4 -37 -4 -78 l0 -73 75 0 c66 0 75 2 75 18 0 15
-8 18 -52 17 -62 0 -80 22 -21 27 49 4 55 33 6 32 -18 0 -34 5 -37 12 -4 9 9
12 47 11 46 -2 52 0 52 18 0 18 -7 20 -68 20 -38 0 -70 -2 -73 -4z"/>
<path d="M1775 1288 c-27 -15 -25 -13 -30 -36 -6 -32 22 -49 83 -51 14 -1 22
-6 19 -13 -2 -7 -15 -12 -28 -11 -13 2 -35 4 -48 5 -35 4 -36 -17 -2 -34 43
-20 96 -12 112 19 19 35 2 55 -57 68 -58 12 -45 30 15 20 22 -4 42 -2 45 3 16
26 -72 50 -109 30z"/>
<path d="M388 943 c-17 -20 -24 -44 -34 -118 -3 -27 -8 -53 -10 -56 -2 -4 -6
-36 -10 -71 -9 -94 -9 -94 217 -93 180 1 182 1 198 24 8 13 16 29 17 35 1 6 9
56 18 111 9 55 18 110 20 121 3 12 -2 31 -10 43 -14 20 -23 21 -203 21 -166 0
-190 -2 -203 -17z m375 -22 c9 -1 6 -23 -19 -166 -9 -49 -21 -96 -26 -102 -8
-10 -56 -13 -178 -13 -184 0 -182 -1 -169 60 4 19 10 54 13 77 3 22 8 53 11
67 3 14 7 37 10 50 3 14 13 26 23 28 15 3 312 2 335 -1z"/>
<path d="M494 889 c-26 -9 -41 -58 -22 -70 22 -15 36 -10 40 14 3 20 9 22 66
23 88 2 80 -16 -37 -82 -105 -59 -108 -61 -113 -88 -3 -17 4 -19 70 -18 169 1
161 0 174 28 10 21 9 27 -3 35 -20 13 -29 11 -29 -6 0 -12 -13 -15 -60 -15
-33 0 -60 2 -60 4 0 2 35 23 78 47 42 23 80 47 84 53 10 14 10 76 1 77 -36 6
-172 5 -189 -2z"/>
<path d="M917 893 c-4 -3 -7 -15 -7 -25 0 -15 8 -18 45 -19 25 -1 50 -3 55 -4
6 -1 12 -3 15 -4 3 0 1 -10 -5 -21 -9 -16 -21 -20 -64 -20 -47 0 -54 -3 -60
-22 -10 -39 -7 -48 19 -48 14 0 25 5 25 10 0 6 22 10 49 10 61 0 76 14 86 76
6 40 4 50 -11 61 -18 13 -135 18 -147 6z"/>
<path d="M1105 858 c-4 -24 -8 -50 -10 -58 -12 -70 -14 -107 -6 -119 11 -17
135 -23 164 -9 29 15 20 38 -15 39 -18 1 -49 2 -68 3 -19 0 -34 6 -34 11 1 6
4 28 8 50 3 22 8 59 12 83 5 40 5 42 -19 42 -22 0 -26 -6 -32 -42z"/>
<path d="M1297 883 c-15 -18 -67 -128 -67 -144 0 -5 24 -9 54 -9 52 0 55 -1
61 -30 4 -16 11 -31 16 -31 33 -5 44 -2 42 11 -9 69 -37 197 -45 207 -15 18
-42 16 -61 -4z m29 -100 c-11 -11 -19 6 -11 24 8 17 8 17 12 0 3 -10 2 -21 -1
-24z"/>
<path d="M1421 828 c22 -55 27 -80 23 -116 -5 -45 -4 -47 21 -48 14 -1 25 1
26 5 7 62 20 93 64 154 25 33 45 65 45 69 0 4 -12 7 -26 6 -17 -2 -35 -15 -52
-40 -15 -21 -30 -38 -33 -38 -3 0 -13 18 -21 39 -14 34 -20 40 -46 39 l-30 -1
29 -69z"/>
<path d="M822 801 c-5 -3 -11 -16 -14 -28 -6 -21 -2 -23 28 -23 27 0 34 4 34
20 0 11 0 23 0 28 0 9 -35 11 -48 3z"/>
<path d="M887 703 c-9 -20 0 -38 21 -39 12 -1 22 2 22 7 0 4 3 14 6 23 5 12 0
16 -19 16 -14 0 -28 -3 -30 -7z"/>
</g>
</svg>
